<?xml version="1.0" standalone="no"?>
<!DOCTYPE svg PUBLIC "-//W3C//DTD SVG 20010904//EN"
 "http://www.w3.org/TR/2001/REC-SVG-20010904/DTD/svg10.dtd">
<svg version="1.0" xmlns="http://www.w3.org/2000/svg"
 width="512.000000pt" height="512.000000pt" viewBox="0 0 512.000000 512.000000"
 preserveAspectRatio="xMidYMid meet">

<g transform="translate(0.000000,512.000000) scale(0.100000,-0.100000)"
fill="#000000" stroke="none">
<path d="M2320 4803 c-635 -44 -1098 -210 -1450 -516 -305 -266 -502 -668
-550 -1117 -22 -204 -14 -182 -73 -209 -30 -14 -78 -50 -113 -85 -153 -154
-176 -379 -58 -563 l34 -53 -34 -53 c-145 -226 -70 -518 164 -641 58 -31 70
-41 70 -62 0 -88 65 -304 131 -437 164 -330 450 -576 802 -691 193 -63 148
-61 1317 -61 983 0 1072 1 1153 18 552 112 969 524 1081 1069 9 43 16 88 16
102 0 21 10 30 58 53 32 16 83 54 117 88 154 154 177 377 59 562 l-34 53 34
53 c118 185 95 408 -59 562 -33 34 -83 72 -112 85 -59 27 -51 6 -73 210 -111
1049 -944 1651 -2265 1638 -93 -1 -190 -3 -215 -5z m515 -303 c484 -39 856
-161 1135 -371 151 -114 296 -290 384 -467 75 -150 141 -394 153 -569 l6 -83
-1953 0 -1953 0 6 83 c25 361 185 711 430 943 290 275 689 420 1282 467 95 8
400 6 510 -3z m1905 -1810 c45 -23 80 -80 80 -131 0 -46 -39 -108 -82 -130
-36 -18 -96 -19 -2179 -19 l-2141 0 -40 22 c-101 57 -102 194 -2 254 l39 24
2143 0 c2128 0 2143 0 2182 -20z m0 -600 c45 -23 80 -80 80 -131 0 -46 -39
-108 -82 -130 -33 -17 -61 -19 -245 -20 -309 0 -378 -25 -538 -191 -87 -90
-119 -108 -195 -108 -74 0 -103 17 -206 118 -138 138 -236 182 -399 181 -157
-1 -268 -53 -400 -191 -87 -90 -119 -108 -195 -108 -74 0 -103 17 -206 118
-138 138 -236 182 -399 181 -157 -1 -268 -53 -400 -191 -89 -92 -118 -108
-203 -108 -68 0 -110 25 -212 124 -157 154 -221 176 -524 176 -187 0 -201 1
-238 22 -101 57 -102 194 -2 254 l39 24 2143 0 c2128 0 2143 0 2182 -20z
m-3902 -595 c20 -9 80 -58 132 -109 134 -132 235 -176 395 -175 155 1 271 55
392 183 84 90 128 116 193 116 87 0 115 -15 205 -108 134 -139 244 -191 405
-191 159 0 274 53 397 183 84 90 128 116 193 116 87 0 115 -15 205 -108 134
-139 244 -191 405 -191 159 0 274 53 397 183 99 106 122 116 249 116 l103 0
-6 -37 c-10 -69 -55 -197 -98 -283 -135 -268 -380 -464 -683 -548 l-97 -27
-1065 0 -1065 0 -100 28 c-304 85 -548 281 -683 552 -41 82 -85 210 -95 278
l-6 37 95 0 c63 0 107 -5 132 -15z"/>
<path d="M2188 4189 c-43 -22 -78 -81 -78 -129 0 -50 35 -107 80 -130 21 -11
53 -20 70 -20 76 0 150 74 150 150 0 50 -35 107 -80 130 -49 25 -94 25 -142
-1z"/>
<path d="M2788 3889 c-43 -22 -78 -81 -78 -129 0 -50 35 -107 80 -130 21 -11
53 -20 70 -20 17 0 49 9 70 20 45 23 80 80 80 130 0 50 -35 107 -80 130 -49
25 -94 25 -142 -1z"/>
<path d="M1588 3589 c-43 -22 -78 -81 -78 -129 0 -50 35 -107 80 -130 21 -11
53 -20 70 -20 76 0 150 74 150 150 0 50 -35 107 -80 130 -49 25 -94 25 -142
-1z"/>
<path d="M3388 3589 c-43 -22 -78 -81 -78 -129 0 -50 35 -107 80 -130 21 -11
53 -20 70 -20 50 0 107 35 130 80 11 21 20 53 20 70 0 50 -35 107 -80 130 -49
25 -94 25 -142 -1z"/>
</g>
</svg>
